<svg xmlns="http://www.w3.org/2000/svg">
  <symbol id="category-default" viewBox="0 0 24 24">
    <path d="M5 7.5A2.5 2.5 0 0 1 7.5 5h9A2.5 2.5 0 0 1 19 7.5v9a2.5 2.5 0 0 1-2.5 2.5h-9A2.5 2.5 0 0 1 5 16.5v-9Z" fill="none" stroke="currentColor" stroke-width="2"/>
    <path d="M8 12h8" fill="none" stroke="currentColor" stroke-width="2" stroke-linecap="round"/>
  </symbol>
  <symbol id="category-electronics" viewBox="0 0 24 24">
    <path d="M7 5h10a2 2 0 0 1 2 2v9a2 2 0 0 1-2 2H7a2 2 0 0 1-2-2V7a2 2 0 0 1 2-2Z" fill="none" stroke="currentColor" stroke-width="2"/>
    <path d="M9 21h6M10 8h4M10 12h2" fill="none" stroke="currentColor" stroke-width="2" stroke-linecap="round"/>
  </symbol>
  <symbol id="category-camera" viewBox="0 0 24 24">
    <path d="M4 8.5A2.5 2.5 0 0 1 6.5 6H9l1.5-2h3L15 6h2.5A2.5 2.5 0 0 1 20 8.5v7A2.5 2.5 0 0 1 17.5 18h-11A2.5 2.5 0 0 1 4 15.5v-7Z" fill="none" stroke="currentColor" stroke-width="2"/>
    <path d="M12 15a3 3 0 1 0 0-6 3 3 0 0 0 0 6Z" fill="none" stroke="currentColor" stroke-width="2"/>
  </symbol>
  <symbol id="category-furniture" viewBox="0 0 24 24">
    <path d="M5 12V9a3 3 0 0 1 3-3h8a3 3 0 0 1 3 3v3" fill="none" stroke="currentColor" stroke-width="2" stroke-linecap="round"/>
    <path d="M4 12h16v5H4v-5ZM6 17v2M18 17v2" fill="none" stroke="currentColor" stroke-width="2" stroke-linejoin="round"/>
  </symbol>
  <symbol id="category-fashion" viewBox="0 0 24 24">
    <path d="M9 4h6l2 3 3 1.5-2 4-2-1v8H8v-8l-2 1-2-4L7 7l2-3Z" fill="none" stroke="currentColor" stroke-width="2" stroke-linejoin="round"/>
    <path d="M9 4c.7 1.3 1.7 2 3 2s2.3-.7 3-2" fill="none" stroke="currentColor" stroke-width="2" stroke-linecap="round"/>
  </symbol>
  <symbol id="category-hobby" viewBox="0 0 24 24">
    <path d="M8 9h8a5 5 0 0 1 4.8 3.7l.6 2.4A3.2 3.2 0 0 1 18.3 19c-1 0-1.9-.5-2.5-1.3L14.5 16h-5l-1.3 1.7A3.2 3.2 0 0 1 2.6 15l.6-2.4A5 5 0 0 1 8 9Z" fill="none" stroke="currentColor" stroke-width="2" stroke-linejoin="round"/>
    <path d="M8 13h3M9.5 11.5v3M16.5 13h.01" fill="none" stroke="currentColor" stroke-width="2" stroke-linecap="round"/>
  </symbol>
  <symbol id="category-vehicle" viewBox="0 0 24 24">
    <path d="M5 13h14l-1.6-4.2A2 2 0 0 0 15.5 7h-7a2 2 0 0 0-1.9 1.3L5 13Z" fill="none" stroke="currentColor" stroke-width="2" stroke-linejoin="round"/>
    <path d="M4 13v4h2M18 17h2v-4M7 17a2 2 0 1 0 0-4 2 2 0 0 0 0 4ZM17 17a2 2 0 1 0 0-4 2 2 0 0 0 0 4Z" fill="none" stroke="currentColor" stroke-width="2" stroke-linecap="round"/>
  </symbol>
</svg>
