<svg width="252" height="64" viewBox="0 0 252 64" fill="none" xmlns="http://www.w3.org/2000/svg" role="img" aria-labelledby="title desc">
  <title id="title">PojokSeken</title>
  <desc id="desc">Official PojokSeken logo with shopping bag icon</desc>
  <rect x="8" y="10" width="44" height="44" rx="9" fill="#05A66B"/>
  <g filter="url(#shadow)">
    <path d="M23.25 28.25H36.75L38 42H22L23.25 28.25Z" stroke="white" stroke-width="2.25" stroke-linejoin="round"/>
    <path d="M26.5 28V24.8C26.5 22.86 28.07 21.25 30 21.25C31.93 21.25 33.5 22.86 33.5 24.8V28" stroke="white" stroke-width="2.25" stroke-linecap="round"/>
  </g>
  <path d="M68.56 42V21H78.13C82.87 21 86.02 23.97 86.02 28.41C86.02 32.82 82.87 35.82 78.13 35.82H73.24V42H68.56ZM73.24 31.89H77.59C79.9 31.89 81.25 30.54 81.25 28.41C81.25 26.28 79.9 24.93 77.59 24.93H73.24V31.89Z" fill="#0F4C43"/>
  <path d="M95.81 42.36C91.01 42.36 87.47 38.88 87.47 34.08C87.47 29.28 91.01 25.8 95.81 25.8C100.61 25.8 104.15 29.28 104.15 34.08C104.15 38.88 100.61 42.36 95.81 42.36ZM95.81 38.64C98.18 38.64 99.77 36.78 99.77 34.08C99.77 31.38 98.18 29.52 95.81 29.52C93.44 29.52 91.85 31.38 91.85 34.08C91.85 36.78 93.44 38.64 95.81 38.64Z" fill="#0F4C43"/>
  <path d="M107.4 48.24C106.47 48.24 105.6 48.12 104.88 47.91V44.28C105.39 44.4 105.93 44.49 106.5 44.49C107.85 44.49 108.42 43.77 108.42 42.21V26.16H112.86V42.36C112.86 46.11 110.97 48.24 107.4 48.24ZM110.64 23.97C109.14 23.97 108.03 22.92 108.03 21.51C108.03 20.1 109.14 19.05 110.64 19.05C112.14 19.05 113.25 20.1 113.25 21.51C113.25 22.92 112.14 23.97 110.64 23.97Z" fill="#0F4C43"/>
  <path d="M124.24 42.36C119.44 42.36 115.9 38.88 115.9 34.08C115.9 29.28 119.44 25.8 124.24 25.8C129.04 25.8 132.58 29.28 132.58 34.08C132.58 38.88 129.04 42.36 124.24 42.36ZM124.24 38.64C126.61 38.64 128.2 36.78 128.2 34.08C128.2 31.38 126.61 29.52 124.24 29.52C121.87 29.52 120.28 31.38 120.28 34.08C120.28 36.78 121.87 38.64 124.24 38.64Z" fill="#0F4C43"/>
  <path d="M135.71 42V20.04H140.15V32.49L145.52 26.16H150.74L144.44 33.24L151.01 42H145.76L141.56 36.33L140.15 37.86V42H135.71Z" fill="#0F4C43"/>
  <path d="M160.61 42.36C155.42 42.36 151.91 39.78 151.61 35.4H156.11C156.41 37.38 158.12 38.58 160.67 38.58C162.92 38.58 164.45 37.62 164.45 36.06C164.45 34.74 163.46 34.08 160.88 33.51L158.6 33C154.55 32.1 152.48 30.09 152.48 26.94C152.48 23.07 155.63 20.64 160.46 20.64C165.14 20.64 168.32 23.13 168.62 27.12H164.21C163.91 25.41 162.5 24.36 160.37 24.36C158.3 24.36 156.95 25.26 156.95 26.67C156.95 27.9 157.88 28.53 160.19 29.04L162.62 29.58C166.88 30.54 168.95 32.49 168.95 35.76C168.95 39.84 165.62 42.36 160.61 42.36Z" fill="#05A66B"/>
  <path d="M179.33 42.36C174.38 42.36 170.99 38.94 170.99 34.14C170.99 29.25 174.32 25.8 179.06 25.8C183.71 25.8 186.92 29.1 186.92 33.93C186.92 34.47 186.89 34.95 186.83 35.37H175.34C175.64 37.53 177.14 38.88 179.39 38.88C181.07 38.88 182.36 38.13 182.87 36.96H186.77C185.96 40.23 183.08 42.36 179.33 42.36ZM175.37 32.46H182.57C182.36 30.45 181.01 29.16 179.06 29.16C177.08 29.16 175.7 30.45 175.37 32.46Z" fill="#05A66B"/>
  <path d="M190.08 42V20.04H194.52V32.49L199.89 26.16H205.11L198.81 33.24L205.38 42H200.13L195.93 36.33L194.52 37.86V42H190.08Z" fill="#05A66B"/>
  <path d="M214.84 42.36C209.89 42.36 206.5 38.94 206.5 34.14C206.5 29.25 209.83 25.8 214.57 25.8C219.22 25.8 222.43 29.1 222.43 33.93C222.43 34.47 222.4 34.95 222.34 35.37H210.85C211.15 37.53 212.65 38.88 214.9 38.88C216.58 38.88 217.87 38.13 218.38 36.96H222.28C221.47 40.23 218.59 42.36 214.84 42.36ZM210.88 32.46H218.08C217.87 30.45 216.52 29.16 214.57 29.16C212.59 29.16 211.21 30.45 210.88 32.46Z" fill="#05A66B"/>
  <path d="M225.59 42V26.16H229.91V28.05C230.87 26.61 232.49 25.8 234.5 25.8C238.13 25.8 240.32 28.17 240.32 32.04V42H235.88V32.88C235.88 30.78 234.8 29.55 232.97 29.55C231.14 29.55 230.03 30.78 230.03 32.88V42H225.59Z" fill="#05A66B"/>
  <defs>
    <filter id="shadow" x="14" y="16" width="32" height="34" filterUnits="userSpaceOnUse" color-interpolation-filters="sRGB">
      <feDropShadow dx="0" dy="3" stdDeviation="2" flood-color="#006641" flood-opacity="0.22"/>
    </filter>
  </defs>
</svg>
